# xmcd
# 
# Track frame offsets:
#     150
#     63397
#     80449
#     117613
# 
# Disc length: 2227
# 
# Revision: 4
# Processed by: cddbd v1.5.2PL0 Copyright (c) Steve Scherf et al.
# Submitted via: BonkEnc v1.0.8
# 
DISCID=3108b104
DTITLE=T-Bone Walker, Joe Turner, Otis Spann, George "Harmonica" Smith, Paul Humphrey, Ernie Watts, Arthur Wright, Ron Brown - Super Black Blues
DYEAR=0
DGENRE=
TTITLE0=Paris Blues
TTITLE1=Here Am I Broken Hearted
TTITLE2=Jot's Blues
TTITLE3=Blues Jam
EXTD=
EXTT0=
EXTT1=
EXTT2=
EXTT3=
PLAYORDER=
